<svg width="33" height="34" viewBox="0 0 33 34" fill="none" xmlns="http://www.w3.org/2000/svg">
<path fill-rule="evenodd" clip-rule="evenodd" d="M2.59621 23.8431L2.59621 8.14508L11.3046 14.6764L2.59621 23.8431ZM30.044 23.8845L30.044 8.10804L20.7216 14.5621L30.044 23.8845ZM18.8866 15.8324L16.3961 17.5566L15.7455 18.007L15.1124 17.5322L13.0732 16.0028L5.15359 24.3393H27.3934L18.8866 15.8324ZM2.59621 4.5769C1.38349 4.5769 0.400391 5.56001 0.400391 6.77273V25.4372C0.400391 26.65 1.38349 27.6331 2.59621 27.6331H30.044C31.2567 27.6331 32.2398 26.65 32.2398 25.4372V6.77273C32.2398 5.56001 31.2567 4.5769 30.044 4.5769H2.59621ZM5.88995 7.8706L15.7968 15.3008L26.5293 7.8706H5.88995Z" fill="white"/>
</svg>
