<svg width="76" height="110" viewBox="0 0 76 110" fill="none" xmlns="http://www.w3.org/2000/svg">
<path d="M19.3917 15.041L25.6288 16.9745C25.1984 18.7906 24.5211 20.3073 23.5982 21.5264C22.6747 22.746 21.5279 23.666 20.1588 24.2861C18.7892 24.9071 17.0459 25.2174 14.9292 25.2174C12.3611 25.2174 10.2635 24.8455 8.63588 24.1043C7.00783 23.3616 5.60405 22.0565 4.4221 20.1871C3.24112 18.3191 2.6499 15.9279 2.6499 13.0148C2.6499 9.12933 3.6838 6.14342 5.75356 4.05558C7.82186 1.96823 10.7501 0.925049 14.5349 0.925049C17.4993 0.925049 19.829 1.53435 21.5235 2.75343C23.2175 3.97203 24.4772 5.84341 25.301 8.36758L18.7355 9.78798C18.5132 9.07656 18.2811 8.55668 18.0378 8.22882C17.6342 7.67522 17.1416 7.24866 16.5582 6.95159C15.9753 6.65402 15.3245 6.50597 14.6062 6.50597C12.9757 6.50597 11.7254 7.15338 10.8571 8.44918C10.2004 9.41126 9.87207 10.9201 9.87207 12.9791C9.87207 15.5267 10.2801 17.2725 11.0985 18.2185C11.9154 19.1644 13.0622 19.6364 14.5398 19.6364C15.9758 19.6364 17.061 19.2441 17.7939 18.4599C18.5273 17.6751 19.0604 16.5352 19.3917 15.041Z" fill="white"/>
<path d="M27.5986 17.1084L34.8203 16.6823C34.961 17.7909 35.2469 18.6338 35.6773 19.2123C36.3785 20.1514 37.3797 20.622 38.6828 20.622C39.6546 20.622 40.4022 20.3762 40.927 19.8861C41.4513 19.3955 41.7141 18.8263 41.7141 18.1804C41.7141 17.5686 41.482 17.0199 41.0164 16.5347C40.5478 16.049 39.3463 15.5898 37.41 15.1598C34.2408 14.4381 31.9805 13.4868 30.63 12.3029C29.2653 11.1194 28.5837 9.61256 28.5837 7.7832C28.5837 6.57584 28.935 5.43835 29.6352 4.36829C30.3363 3.29824 31.3907 2.45636 32.797 1.84364C34.2042 1.23238 36.1347 0.926514 38.5865 0.926514C41.592 0.926514 43.8836 1.49281 45.4613 2.62639C47.04 3.76046 47.9791 5.5649 48.2806 8.0407L41.0584 8.47654C40.9016 7.33124 40.5718 6.49718 40.0714 5.97632C39.5706 5.45399 38.8782 5.19356 37.9958 5.19356C37.2707 5.19356 36.7244 5.37386 36.3575 5.73494C35.9896 6.09651 35.8058 6.53431 35.8058 7.05028C35.8058 7.427 35.8914 7.76708 36.0624 8.07099C36.2265 8.38273 36.9472 8.67248 38.2259 8.94317C41.3863 9.63113 43.6505 10.325 45.0181 11.0286C46.3858 11.7312 47.3801 12.6034 48.0031 13.6446C48.6251 14.6863 48.9358 15.8512 48.9358 17.1396C48.9358 18.6519 48.519 20.0454 47.684 21.3226C46.8499 22.5999 45.6841 23.5693 44.187 24.2289C42.6889 24.8895 40.8009 25.2188 38.523 25.2188C34.5227 25.2188 31.7518 24.4551 30.2117 22.9282C28.6716 21.4008 27.8009 19.461 27.5986 17.1084Z" fill="white"/>
<path d="M51.2346 17.1084L58.4558 16.6823C58.596 17.7909 58.8814 18.6338 59.3123 19.2123C60.0135 20.1514 61.0152 20.622 62.3173 20.622C63.2887 20.622 64.0372 20.3762 64.5625 19.8861C65.0868 19.3955 65.3506 18.8263 65.3506 18.1804C65.3506 17.5686 65.1171 17.0199 64.6524 16.5347C64.1838 16.049 62.9808 15.5898 61.0464 15.1598C57.8758 14.4381 55.6155 13.4868 54.2645 12.3029C52.9003 11.1194 52.2182 9.61256 52.2182 7.7832C52.2182 6.57584 52.569 5.43835 53.2702 4.36829C53.9704 3.29824 55.0258 2.45636 56.433 1.84364C57.8392 1.23238 59.7692 0.926514 62.2211 0.926514C65.2265 0.926514 67.5186 1.49281 69.0968 2.62639C70.6745 3.76046 71.6136 5.5649 71.9156 8.0407L64.6934 8.47654C64.5361 7.33124 64.2068 6.49718 63.7059 5.97632C63.2046 5.45399 62.5142 5.19356 61.6308 5.19356C60.9067 5.19356 60.3594 5.37386 59.992 5.73494C59.6251 6.09651 59.4408 6.53431 59.4408 7.05028C59.4408 7.427 59.5264 7.76708 59.6964 8.07099C59.8611 8.38273 60.5832 8.67248 61.8624 8.94317C65.0223 9.63113 67.2855 10.325 68.6536 11.0286C70.0208 11.7312 71.0146 12.6034 71.6386 13.6446C72.2601 14.6863 72.5713 15.8512 72.5713 17.1396C72.5713 18.6519 72.154 20.0454 71.32 21.3226C70.4849 22.5999 69.3191 23.5693 67.8215 24.2289C66.3239 24.8895 64.4359 25.2188 62.158 25.2188C58.1573 25.2188 55.3883 24.4551 53.8462 22.9282C52.3061 21.4008 51.4364 19.461 51.2346 17.1084Z" fill="white"/>
<path d="M11.3981 41.3251L8.85488 53.9688H60.615L58.9994 62.136H7.20492L4.69607 74.7797H56.4562L53.5694 89.2013L32.7069 96.0698L14.629 89.2013L15.8664 82.9475H3.14988L0.125 98.1202L30.0265 109.5L64.4991 98.1202L69.0701 75.2925L69.9981 70.714L75.875 41.3251H11.3981Z" fill="white"/>
</svg>
