<svg width="86" height="84" viewBox="0 0 86 84" fill="none" xmlns="http://www.w3.org/2000/svg">
<path d="M43.2789 0.415775C19.7392 0.406256 0.67334 19.4626 0.67334 42.9832C0.67334 61.5827 12.6002 77.3932 29.2103 83.1996C31.4472 83.7612 31.1045 82.1715 31.1045 81.0864V73.7094C18.1877 75.2229 17.6641 66.6752 16.7979 65.2474C15.0465 62.2585 10.9059 61.497 12.1433 60.0692C15.0846 58.5557 18.083 60.45 21.5573 65.5805C24.0702 69.3023 28.9723 68.6741 31.4567 68.0554C31.9992 65.8185 33.1605 63.8196 34.7597 62.268C21.3764 59.8693 15.7985 51.7023 15.7985 41.9933C15.7985 37.2815 17.35 32.9506 20.396 29.4572C18.4542 23.6984 20.5769 18.7677 20.8624 18.0348C26.3928 17.5398 32.142 21.9946 32.5894 22.3468C35.7306 21.4996 39.3191 21.0522 43.336 21.0522C47.3719 21.0522 50.9699 21.5186 54.1396 22.3753C55.2153 21.5567 60.5457 17.7302 65.6858 18.1966C65.9618 18.9296 68.0369 23.746 66.2093 29.4287C69.2934 32.9315 70.8639 37.3006 70.8639 42.0218C70.8639 51.7499 65.2479 59.9264 51.8266 62.2871C52.9762 63.4176 53.889 64.7658 54.5116 66.2531C55.1343 67.7403 55.4544 69.3367 55.4532 70.949V81.6575C55.5294 82.5142 55.4532 83.3614 56.881 83.3614C73.7386 77.6787 85.8749 61.754 85.8749 42.9927C85.8749 19.4626 66.7995 0.415775 43.2789 0.415775Z" fill="white"/>
</svg>
