<svg width="81" height="106" viewBox="0 0 81 106" fill="none" xmlns="http://www.w3.org/2000/svg">
<path d="M0.600098 0.974976H6.33218V7.33397H12.8446V0.974976H18.5758V19.2897H12.8446V11.9132H6.33218V19.2897H0.600098V0.974976Z" fill="white"/>
<path d="M20.9204 0.974976H38.6349V5.29896H32.6432V19.2897H26.912V5.29896H20.9204V0.974976Z" fill="white"/>
<path d="M40.9797 0.974976H48.5341L51.4118 12.1598L54.2606 0.974976H61.8206V19.2897H57.131V5.40337L53.5933 19.2897H49.2423L45.669 5.40337V19.2897H40.9797V0.974976Z" fill="white"/>
<path d="M65.4678 0.974976H71.1981V14.7113H80.317V19.2897H65.4678V0.974976Z" fill="white"/>
<path d="M41.8778 73.0373H41.8349H14.0537L10.9978 39.5819L10.7002 36.325H41.8349H41.8778H72.9811L72.6841 39.5819L72.1175 45.7366L71.8679 48.4654H71.8282H41.8778H41.8349H24.2886L25.425 60.8975H41.8349H41.8778H67.3857H70.7363L70.4327 64.1576L67.5114 96.1191L67.3244 98.1704L41.8781 105.057V105.058L41.8203 105.074L16.3512 98.1704L14.6098 79.1082H20.3622H27.0911L27.9766 88.7905L41.8235 92.4416L41.8349 92.4387V92.4372L55.7016 88.7832L57.1457 73.0373H41.8778Z" fill="white"/>
</svg>
