<svg width="400" height="400" viewBox="0 0 400 400" fill="none" xmlns="http://www.w3.org/2000/svg">
<g clip-path="url(#clip0_11_5)">
<rect width="400" height="400" fill="white"/>
<path d="M298 329.388C298 359.822 283.841 387.457 263.486 407.513C243.11 427.59 216.715 439.888 192.5 439.888C144.205 439.888 101 390.749 101 329.388C101 298.885 114.342 268.71 133.873 246.148C153.431 223.553 178.925 208.888 203 208.888C227.037 208.888 250.765 223.513 268.57 246.078C286.351 268.613 298 298.808 298 329.388Z" fill="white" stroke="black" stroke-width="4"/>
<path d="M291.153 209.814C288.947 228.02 277.039 243.459 259.265 253.639C241.49 263.819 217.959 268.656 192.896 265.619C167.834 262.582 146.139 252.264 131.311 238.133C116.482 224.002 108.607 206.165 110.813 187.959C113.019 169.753 124.928 154.314 142.702 144.134C160.477 133.953 184.008 129.116 209.07 132.153C234.133 135.191 255.827 145.509 270.656 159.64C285.484 173.771 293.36 191.608 291.153 209.814Z" fill="white" stroke="black" stroke-width="4"/>
<path d="M166.105 173.73C165.867 181.356 159.493 187.344 151.868 187.106C144.243 186.868 138.254 180.494 138.492 172.868C138.73 165.243 145.105 159.254 152.73 159.492C160.355 159.73 166.343 166.105 166.105 173.73Z" fill="white" stroke="black" stroke-width="4"/>
<path d="M270.844 196.271C270.79 198.003 270.422 199.251 269.886 200.166C269.359 201.07 268.604 201.762 267.588 202.294C265.462 203.407 262.275 203.776 258.112 203.646C253.967 203.516 250.351 202.943 247.857 201.624C246.644 200.982 245.759 200.197 245.179 199.252C244.606 198.316 244.252 197.095 244.304 195.442C244.514 188.716 250.517 183.243 257.961 183.476C265.404 183.708 271.054 189.544 270.844 196.271Z" fill="white" stroke="black" stroke-width="4"/>
<path d="M253.746 225.182C255.131 225.491 255.995 226.889 255.52 228.226C252.525 236.636 245.547 243.76 235.575 248.508C224.636 253.715 210.808 255.725 196.556 254.179C182.303 252.633 168.553 247.632 157.756 240.067C148 233.23 141.229 224.701 138.384 215.749C137.92 214.288 139.056 212.866 140.588 212.857C141.722 212.85 142.697 213.639 143.012 214.728C145.474 223.213 151.787 231.323 161.009 237.786C170.911 244.724 183.522 249.311 196.594 250.729C209.666 252.147 222.348 250.304 232.38 245.527C241.504 241.183 247.896 234.67 250.653 226.981C251.111 225.702 252.42 224.886 253.746 225.182Z" fill="black"/>
</g>
<defs>
<clipPath id="clip0_11_5">
<rect width="400" height="400" fill="white"/>
</clipPath>
</defs>
</svg>
