<svg width="30" height="34" viewBox="0 0 30 34" fill="none" xmlns="http://www.w3.org/2000/svg">
<mask id="path-1-inside-1_222_505" fill="white">
<path fill-rule="evenodd" clip-rule="evenodd" d="M14.8499 14.85C10.7492 14.85 7.42489 11.5257 7.42489 7.42499C7.42489 3.32428 10.7492 0 14.8499 0C18.9506 0 22.2749 3.32428 22.2749 7.42499C22.2749 11.5257 18.9506 14.85 14.8499 14.85ZM14.8497 18.0319C23.0511 18.0319 29.6997 24.6805 29.6997 32.8819V33.9426H-0.000244141V32.8819C-0.000244141 24.6805 6.64832 18.0319 14.8497 18.0319Z"/>
</mask>
<path d="M29.6997 33.9426H31.8955V36.1384H29.6997V33.9426ZM-0.000244141 33.9426V36.1384H-2.19607V33.9426H-0.000244141ZM9.62071 7.42499C9.62071 10.313 11.9619 12.6542 14.8499 12.6542V17.0458C9.53645 17.0458 5.22906 12.7384 5.22906 7.42499H9.62071ZM14.8499 2.19582C11.9619 2.19582 9.62071 4.537 9.62071 7.42499H5.22906C5.22906 2.11156 9.53645 -2.19582 14.8499 -2.19582V2.19582ZM20.079 7.42499C20.079 4.537 17.7379 2.19582 14.8499 2.19582V-2.19582C20.1633 -2.19582 24.4707 2.11156 24.4707 7.42499H20.079ZM14.8499 12.6542C17.7379 12.6542 20.079 10.313 20.079 7.42499H24.4707C24.4707 12.7384 20.1633 17.0458 14.8499 17.0458V12.6542ZM27.5039 32.8819C27.5039 25.8932 21.8384 20.2277 14.8497 20.2277V15.8361C24.2639 15.8361 31.8955 23.4678 31.8955 32.8819H27.5039ZM27.5039 33.9426V32.8819H31.8955V33.9426H27.5039ZM-0.000244141 31.7468H29.6997V36.1384H-0.000244141V31.7468ZM2.19558 32.8819V33.9426H-2.19607V32.8819H2.19558ZM14.8497 20.2277C7.86104 20.2277 2.19558 25.8932 2.19558 32.8819H-2.19607C-2.19607 23.4678 5.4356 15.8361 14.8497 15.8361V20.2277Z" fill="white" mask="url(#path-1-inside-1_222_505)"/>
</svg>
