<svg width="124" height="111" viewBox="0 0 124 111" fill="none" xmlns="http://www.w3.org/2000/svg">
<path fill-rule="evenodd" clip-rule="evenodd" d="M91.6687 4.08127C94.0182 5.43778 95.6639 8.04524 96.484 11.8794C97.3041 15.7134 97.2621 20.6338 96.3478 26.3401C95.9268 28.9683 95.3231 31.7486 94.5415 34.6476C88.8296 33.2743 82.4955 32.2539 75.7452 31.6613C71.8569 26.1117 67.8063 21.1366 63.7609 16.8765C65.8808 14.7502 67.9868 12.8372 70.0523 11.1584C74.5371 7.51351 78.7772 5.01694 82.5076 3.81014C86.2382 2.60327 89.3191 2.72476 91.6687 4.08127ZM60.2387 16.8766C58.1189 14.7503 56.013 12.8373 53.9475 11.1587C49.4628 7.51376 45.2226 5.01719 41.4923 3.81038C37.7617 2.60352 34.6808 2.725 32.3312 4.08152C29.9817 5.43803 28.336 8.04548 27.5159 11.8797C26.6958 15.7137 26.7378 20.6341 27.652 26.3404C28.0731 28.9685 28.6768 31.7487 29.4583 34.6477C35.1702 33.2743 41.5042 32.254 48.2544 31.6613C52.1428 26.1118 56.1934 21.1366 60.2387 16.8766ZM61.9998 15.0667C59.8293 12.8913 57.6674 10.9282 55.5401 9.19922C50.9154 5.44051 46.4003 2.74433 42.2695 1.40797C38.1388 0.0716645 34.2526 0.0565966 31.0687 1.8948C27.8848 3.73301 25.9548 7.10612 25.0467 11.3515C24.1386 15.5971 24.2161 20.8554 25.1588 26.7398C25.5925 29.4467 26.2117 32.3005 27.0104 35.2679C24.0412 36.0599 21.2601 36.9506 18.6991 37.9285C13.1316 40.0543 8.53909 42.6163 5.31635 45.5256C2.09374 48.4347 0.137573 51.7927 0.137573 55.4691C0.137573 59.1455 2.09374 62.5036 5.31635 65.4127C8.53909 68.3219 13.1316 70.884 18.6991 73.0097C21.2601 73.9876 24.0412 74.8783 27.0104 75.6703C26.2116 78.6377 25.5925 81.4916 25.1588 84.1985C24.216 90.083 24.1386 95.3412 25.0467 99.5868C25.9547 103.832 27.8848 107.205 31.0687 109.044C34.2525 110.882 38.1388 110.867 42.2694 109.53C46.4003 108.194 50.9153 105.498 55.54 101.739C57.6674 100.01 59.8293 98.047 61.9998 95.8716C64.1704 98.0471 66.3324 100.01 68.4598 101.739C73.0846 105.498 77.5996 108.194 81.7304 109.531C85.8611 110.867 89.7473 110.882 92.9312 109.044C96.1151 107.206 98.0451 103.832 98.9532 99.5871C99.8613 95.3415 99.7839 90.0832 98.8411 84.1988C98.4074 81.4918 97.7882 78.6379 96.9895 75.6704C99.9588 74.8784 102.74 73.9876 105.301 73.0097C110.869 70.884 115.461 68.3219 118.684 65.4127C121.906 62.5036 123.863 59.1455 123.863 55.4691C123.863 51.7927 121.906 48.4347 118.684 45.5256C115.461 42.6163 110.869 40.0543 105.301 37.9285C102.74 36.9506 99.9588 36.0599 96.9895 35.2679C97.7882 32.3004 98.4074 29.4465 98.841 26.7396C99.7838 20.8551 99.8613 15.5969 98.9532 11.3513C98.0451 7.10588 96.115 3.73276 92.9312 1.89456C89.7473 0.0563543 85.8611 0.0714223 81.7304 1.40773C77.5996 2.74408 73.0845 5.44027 68.4598 9.19898C66.3324 10.928 64.1704 12.8912 61.9998 15.0667ZM93.8526 37.079C88.8879 35.8905 83.4238 34.9699 77.6021 34.3741C79.4984 37.2096 81.3483 40.1802 83.1316 43.269C84.9148 46.3576 86.5624 49.4448 88.0699 52.5047C90.4647 47.1651 92.3995 41.9727 93.8526 37.079ZM89.4908 55.4691C92.3527 49.3269 94.636 43.3313 96.3027 37.6979C99.2041 38.4706 101.914 39.338 104.4 40.2874C109.799 42.3488 114.082 44.7726 116.992 47.3998C119.902 50.0272 121.338 52.7561 121.338 55.4691C121.338 58.1821 119.902 60.9111 116.992 63.5384C114.082 66.1656 109.799 68.5894 104.4 70.6508C101.914 71.6003 99.2041 72.4676 96.3027 73.2403C94.636 67.6069 92.3527 61.6113 89.4908 55.4691ZM86.6999 55.4692C84.9838 51.8616 83.0632 48.2006 80.9449 44.5315C78.8264 40.8622 76.6161 37.3683 74.3498 34.0782C70.3676 33.7607 66.2368 33.5934 62.0001 33.5934C57.7632 33.5934 53.6323 33.7607 49.6498 34.0783C47.3837 37.3683 45.1734 40.8621 43.055 44.5312C40.9366 48.2004 39.016 51.8615 37.2998 55.4691C39.016 59.0768 40.9366 62.7379 43.0551 66.4071C45.1734 70.0762 47.3837 73.57 49.6498 76.86C53.6322 77.1775 57.7632 77.3448 62.0001 77.3448C66.2368 77.3448 70.3676 77.1775 74.3499 76.86C76.6161 73.5699 78.8264 70.0761 80.9448 66.4069C83.0632 62.7377 84.9838 59.0767 86.6999 55.4692ZM77.6022 76.5642C79.4984 73.7287 81.3483 70.7581 83.1315 67.6694C84.9148 64.5808 86.5624 61.4935 88.0699 58.4336C90.4647 63.7732 92.3995 68.9655 93.8525 73.8593C88.8879 75.0478 83.4238 75.9683 77.6022 76.5642ZM72.4676 79.5286C69.0639 79.7531 65.5665 79.8698 62.0001 79.8698C58.4335 79.8698 54.9359 79.753 51.5321 79.5286C54.9589 84.2724 58.4882 88.5441 61.9998 92.2494C65.5114 88.5441 69.0407 84.2724 72.4676 79.5286ZM63.7609 94.0618C67.8063 89.8017 71.8569 84.8265 75.7453 79.2769C82.4956 78.6843 88.8296 77.6639 94.5415 76.2906C95.3231 79.1897 95.9268 81.97 96.3479 84.5982C97.2621 90.3045 97.3041 95.2249 96.4841 99.0589C95.6639 102.893 94.0183 105.501 91.6687 106.857C89.3192 108.214 86.2382 108.335 82.5076 107.128C78.7773 105.921 74.5371 103.425 70.0524 99.7799C67.9868 98.1012 65.8808 96.1881 63.7609 94.0618ZM60.2387 94.0618C56.1934 89.8017 52.1427 84.8265 48.2544 79.2769C41.5042 78.6843 35.1702 77.6639 29.4583 76.2906C28.6768 79.1895 28.0731 81.9699 27.652 84.598C26.7378 90.3043 26.6958 95.2247 27.5158 99.0587C28.3359 102.893 29.9816 105.5 32.3312 106.857C34.6807 108.213 37.7617 108.335 41.4922 107.128C45.2226 105.921 49.4628 103.425 53.9475 99.7797C56.013 98.101 58.1189 96.188 60.2387 94.0618ZM30.1473 73.8592C35.1119 75.0477 40.5759 75.9683 46.3975 76.5641C44.5014 73.7287 42.6515 70.7582 40.8683 67.6696C39.0851 64.5809 37.4374 61.4936 35.9299 58.4336C33.5351 63.7732 31.6003 68.9655 30.1473 73.8592ZM35.9299 52.5047C37.4374 49.4447 39.0851 46.3574 40.8683 43.2687C42.6515 40.1801 44.5014 37.2095 46.3976 34.3741C40.576 34.9699 35.1119 35.8905 30.1473 37.079C31.6003 41.9728 33.5351 47.1651 35.9299 52.5047ZM34.509 55.4691C31.6471 61.6113 29.3638 67.6069 27.6972 73.2402C24.7959 72.4675 22.0862 71.6002 19.5997 70.6508C14.2008 68.5894 9.91861 66.1656 7.0083 63.5384C4.09785 60.9111 2.66257 58.1821 2.66257 55.4691C2.66257 52.7561 4.09785 50.0272 7.0083 47.3998C9.91861 44.7726 14.2008 42.3488 19.5997 40.2874C22.0862 39.338 24.7959 38.4707 27.6972 37.698C29.3638 43.3314 31.6471 49.3269 34.509 55.4691ZM51.5322 31.4096C54.9359 31.1852 58.4335 31.0684 62.0001 31.0684C65.5665 31.0684 69.0639 31.1852 72.4675 31.4096C69.0407 26.6659 65.5114 22.3941 61.9998 18.6889C58.4883 22.3942 54.959 26.6659 51.5322 31.4096ZM62.0002 66.7628C68.2375 66.7628 73.2939 61.7065 73.2939 55.4692C73.2939 49.2319 68.2375 44.1755 62.0002 44.1755C55.7629 44.1755 50.7066 49.2319 50.7066 55.4692C50.7066 61.7065 55.7629 66.7628 62.0002 66.7628Z" fill="white"/>
</svg>
