<svg width="31" height="34" viewBox="0 0 31 34" fill="none" xmlns="http://www.w3.org/2000/svg">
<path fill-rule="evenodd" clip-rule="evenodd" d="M10.2781 7.16318C10.2781 6.50195 10.8142 5.96592 11.4754 5.96592H18.6589C19.3202 5.96592 19.8562 6.50195 19.8562 7.16318V8.3602H10.2781V7.16318ZM7.88363 8.3602V7.16318C7.88363 5.1795 9.49172 3.57141 11.4754 3.57141H18.6589C20.6426 3.57141 22.2507 5.1795 22.2507 7.16318V8.3602H28.5673C29.7074 8.3602 30.6316 9.28439 30.6316 10.4244V27.9704C30.6316 29.1105 29.7074 30.0346 28.5673 30.0346H2.76443C1.62438 30.0346 0.700195 29.1105 0.700195 27.9704V10.4244C0.700195 9.28439 1.62438 8.3602 2.76443 8.3602H7.88363ZM2.76443 19.2668L2.76443 27.9704H28.5673V19.2612L17.516 20.4891C15.9408 20.6641 14.3507 20.6571 12.777 20.4683L2.76443 19.2668ZM3.28054 10.9405H15.1499H28.0513V17.2416L17.2881 18.4375C15.8704 18.595 14.4392 18.5887 13.023 18.4188L3.28054 17.2497V10.9405ZM10.5055 23.8419C10.5055 23.5569 10.7365 23.3259 11.0215 23.3259H19.2785C19.5635 23.3259 19.7945 23.5569 19.7945 23.8419C19.7945 24.127 19.5635 24.358 19.2785 24.358H11.0215C10.7365 24.358 10.5055 24.127 10.5055 23.8419Z" fill="white"/>
</svg>
